#!OML:ASF X:\für Bonn\!DataBase\2005_08_10_Bjorn_Final\c3d\bjorn.ASF
:FULLY-SPECIFIED
:DEGREES
342
root -1.09939 2.44165 19.7503 -424.027 -171.352 6.27789
lowerback 58.7072 0.41833 17.8509
upperback 22.8727 -4.47046 3.81621
thorax 5.76326 -7.4765 -2.65405
lowerneck -5.87033 13.8907 4.86307
upperneck 4.49766 19.3411 -17.7148
head 4.57427 8.86256 -4.77246
rclavicle 4.45775e-014 2.89232e-014
rhumerus -245.099 -176.56 94.8557
rradius 61.3327
rwrist -48.3625
rhand -16.3995 -14.8474
rfingers 7.12502
rthumb 9.81472 -44.5986
lclavicle 4.45775e-014 2.89232e-014
lhumerus -422.176 -33.6225 -268.081
lradius 41.8502
lwrist 7.76758
lhand -36.0133 -10.5928
lfingers 7.12502
lthumb -9.12261 19.1899
rfemur -268.222 -139.994 195.333
rtibia 125.676
rfoot 26.3187 8.67276
rtoes -6.64692
lfemur -82.3378 14.8738 -31.521
ltibia 118.304
lfoot 19.139 5.24246
ltoes -7.14178
343
root -1.10772 2.44801 19.7502 -424.065 -171.379 6.37699
lowerback 59.3775 0.447197 17.9104
upperback 22.8171 -4.45503 3.92
thorax 5.70495 -7.5646 -2.52583
lowerneck -5.82258 13.8403 4.8632
upperneck 3.93835 19.208 -17.8999
head 4.40252 8.82717 -4.85843
rclavicle -3.17062e-014 2.18663e-014
rhumerus -245.12 -177.034 95.2587
rradius 61.7482
rwrist -46.5565
rhand -15.4094 -13.9653
rfingers 7.12502
rthumb 10.7699 -43.6692
lclavicle -3.17062e-014 2.18663e-014
lhumerus -422.706 -34.1814 -267.824
lradius 43.3711
lwrist 2.67581
lhand -39.7111 -12.2019
lfingers 7.12502
lthumb -12.6892 17.3926
rfemur -268.065 -139.929 195.274
rtibia 125.653
rfoot 26.2946 8.78637
rtoes -6.68693
lfemur -82.2549 14.7801 -31.4633
ltibia 118.288
lfoot 19.2159 5.35903
ltoes -6.08587
344
root -1.11638 2.45416 19.7512 -424.104 -171.392 6.46518
lowerback 59.9807 0.486527 17.9688
upperback 22.8115 -4.45709 3.99937
thorax 5.70775 -7.65677 -2.43155
lowerneck -5.73388 13.773 4.97815
upperneck 3.3605 19.0452 -18.1423
head 4.23256 8.78038 -4.98325
rclavicle 4.48756e-014 -4.37326e-015
rhumerus -245.071 -177.484 95.6938
rradius 62.1955
rwrist -44.5694
rhand -14.3685 -12.7744
rfingers 7.12502
rthumb 11.7738 -42.4235
lclavicle 4.48756e-014 -4.37326e-015
lhumerus -423.039 -34.7917 -267.777
lradius 45.0949
lwrist -2.24574
lhand -43.2574 -14.4257
lfingers 7.12502
lthumb -16.1062 14.925
rfemur -267.911 -139.859 195.192
rtibia 125.631
rfoot 26.2864 8.88158
rtoes -6.75074
lfemur -82.1748 14.6771 -31.4299
ltibia 118.275
lfoot 19.3332 5.54883
ltoes -5.19454
345
root -1.125 2.45941 19.7523 -424.145 -171.443 6.57318
lowerback 60.4979 0.49965 18.1173
upperback 22.858 -4.46897 4.0349
thorax 5.78314 -7.73391 -2.4341
lowerneck -5.68404 13.6949 5.18214
upperneck 2.83525 18.8697 -18.3657
head 4.08994 8.72519 -5.11204
rclavicle -7.87684e-015 2.37548e-014
rhumerus -244.927 -177.874 96.1137
rradius 62.688
rwrist -42.6077
rhand -13.359 -11.5137
rfingers 7.12502
rthumb 12.7471 -41.1045
lclavicle -7.87684e-015 2.37548e-014
lhumerus -423.09 -35.4471 -268.041
lradius 46.9125
lwrist -6.82629
lhand -46.3427 -17.661
lfingers 7.12502
lthumb -19.0753 11.4236
rfemur -267.752 -139.834 195.162
rtibia 125.599
rfoot 26.2874 8.88822
rtoes -6.60584
lfemur -82.1252 14.6083 -31.3551
ltibia 118.279
lfoot 19.4307 5.71489
ltoes -4.47501
346
root -1.13329 2.46527 19.753 -424.173 -171.497 6.65459
lowerback 60.9569 0.542488 18.2117
upperback 22.9178 -4.48152 4.06578
thorax 5.86968 -7.81198 -2.4253
lowerneck -5.49148 13.5965 5.368
upperneck 2.22206 18.6512 -18.5821
head 3.8894 8.66151 -5.25349
rclavicle 5.34234e-014 4.53726e-014
rhumerus -244.766 -178.293 96.6087
rradius 63.2825
rwrist -40.7638
rhand -12.3268 -10.1968
rfingers 7.12502
rthumb 13.7421 -39.723
lclavicle 5.34234e-014 4.53726e-014
lhumerus -422.998 -36.0429 -268.455
lradius 48.7871
lwrist -11.2241
lhand -49.2732 -21.1358
lfingers 7.12502
lthumb -21.8914 7.64577
rfemur -267.621 -139.826 195.146
rtibia 125.57
rfoot 26.239 9.01566
rtoes -6.92399
lfemur -82.0902 14.5515 -31.2986
ltibia 118.296
lfoot 19.5198 5.88161
ltoes -3.99282
347
root -1.14179 2.47024 19.7553 -424.221 -171.546 6.74659
lowerback 61.3518 0.603694 18.31
upperback 23.007 -4.48955 4.13508
thorax 5.99767 -7.89233 -2.3877
lowerneck -5.20953 13.4566 5.47757
upperneck 1.58024 18.3705 -18.7689
head 3.64763 8.57295 -5.38961
rclavicle 1.98163e-014 6.3959e-014
rhumerus -244.556 -178.665 97.2528
rradius 63.9753
rwrist -38.9439
rhand -11.2767 -8.91149
rfingers 7.12502
rthumb 14.7539 -38.3664
lclavicle 1.98163e-014 6.3959e-014
lhumerus -422.759 -36.6483 -268.924
lradius 50.7623
lwrist -15.1977
lhand -51.8473 -23.7708
lfingers 7.12502
lthumb -24.3611 4.70078
rfemur -267.455 -139.827 195.098
rtibia 125.531
rfoot 26.2281 9.08644
rtoes -7.04003
lfemur -82.0143 14.4708 -31.2334
ltibia 118.295
lfoot 19.6178 6.10521
ltoes -3.53267
